<svg width="300" height="266" viewBox="0 0 300 266" fill="none" xmlns="http://www.w3.org/2000/svg">
<g clip-path="url(#clip0_2_146)">
<path d="M97.4987 73.6598C97.4987 23.5227 83.1535 0.00744629 48.01 0.00744629C12.8665 0.00744629 0 34.982 0 70.2981C0 91.7848 3.99458 101.66 8.59828 113.465C14.7777 129.257 31.2416 139.716 48.959 139.716H63.6529C63.902 139.715 64.1417 139.805 64.3207 139.966C64.4997 140.128 64.6038 140.348 64.6107 140.58C64.955 152.546 71.3022 205.534 46.3681 205.534C33.325 205.534 28.9508 189.45 28.5668 169.511C28.5552 168.811 28.2486 168.144 27.7133 167.653C27.1781 167.163 26.4572 166.888 25.7066 166.89L2.08336 166.984C1.83337 166.985 1.58595 167.031 1.35532 167.121C1.12469 167.211 0.915394 167.343 0.739445 167.508C0.563495 167.674 0.424364 167.87 0.330039 168.086C0.235714 168.302 0.18805 168.533 0.189795 168.766C0.547321 211.632 14.0715 237.176 47.5686 237.176C85.8857 237.176 97.4987 196.523 97.4987 151.151V73.6598ZM48.01 105.824C36.9002 105.824 32.7468 96.8664 32.7468 84.4278V56.2836C32.7468 43.45 37.3195 35.1836 48.01 35.1836C58.7005 35.1836 64.4915 44.2935 64.4915 56.226V84.4155C64.4915 97.7881 59.1198 105.824 48.01 105.824Z" fill="black"/>
<path d="M127.174 73.9444H103.519C103.267 73.9439 103.018 73.897 102.785 73.8066C102.552 73.7161 102.341 73.5839 102.163 73.4173C101.985 73.2507 101.844 73.0531 101.748 72.8357C101.652 72.6183 101.603 72.3855 101.604 72.1504C101.604 27.4982 113.963 0 149.998 0C176.627 0 190.862 15.6357 195.854 41.0519C197.266 48.2608 197.178 78.1949 195.854 84.1447C195.854 131.138 132.497 155.583 132.497 202.025C146.568 202.025 185.314 201.955 194.671 201.939C195.215 201.939 195.737 202.141 196.122 202.499C196.507 202.858 196.723 203.345 196.723 203.852V234.268C196.725 234.521 196.672 234.772 196.568 235.006C196.464 235.24 196.312 235.453 196.119 235.632C195.927 235.811 195.698 235.952 195.446 236.048C195.195 236.143 194.925 236.191 194.653 236.189H97.7152C97.7152 120.181 166.846 135.582 166.846 65.9373C166.846 49.7091 167.009 31.2508 148.568 31.2508C128.039 31.2508 129.147 54.5726 129.094 72.171C129.092 72.405 129.042 72.6364 128.945 72.8522C128.848 73.0679 128.706 73.2637 128.528 73.4284C128.349 73.5931 128.138 73.7234 127.906 73.812C127.673 73.9005 127.425 73.9455 127.174 73.9444Z" fill="black"/>
<path d="M285.306 123.72C282.336 120.791 279.086 118.12 275.595 115.742C277.842 114.175 279.913 112.399 281.775 110.442C291.086 100.837 296.188 88.3225 296.072 75.377L295.917 50.2529C295.793 32.2431 281.536 0.00891113 248.993 0.00891113C216.449 0.00891113 203.591 31.0087 203.591 50.0102V73.9286C203.571 87.0546 208.889 99.6998 218.475 109.315C220.471 111.347 222.617 113.247 224.897 115.001C221.282 117.314 217.526 120.511 214.061 123.831C204.892 132.668 199.773 144.484 199.786 156.777L199.733 189.592C199.694 212.066 211.558 237.099 250.167 237.099C288.775 237.099 300.203 210.58 300 188.958L299.691 156.452C299.592 144.223 294.44 132.499 285.306 123.72ZM249.443 31.5724C258.712 31.5724 261.634 40.1309 261.634 50.9607V73.8834C261.634 78.1174 260.57 91.7862 250.043 91.7862C239.516 91.7862 237.583 79.072 237.583 74.406V50.3517C237.583 39.7441 240.16 31.5724 249.443 31.5724ZM265.028 187.37C265.028 187.37 266.913 209.358 250.167 209.358C233.42 209.358 234.184 191.599 234.184 186.242V150.646C234.184 147.597 236.894 135.583 249.227 135.583C254.298 135.583 265.028 138.689 265.028 150.93V187.37Z" fill="black"/>
<path d="M6.70919 257.174C6.85926 254.364 8.97793 253.158 11.9176 253.158C14.1819 253.158 16.6493 253.808 16.6493 257.014V263.346C16.6316 263.464 16.643 263.584 16.6828 263.697C16.7225 263.81 16.7895 263.912 16.8786 263.998C16.9677 264.083 17.0765 264.147 17.1967 264.187C17.3168 264.227 17.4452 264.24 17.5718 264.227C17.7423 264.223 17.911 264.192 18.0706 264.136V265.37C17.7343 265.439 17.3905 265.469 17.0465 265.461C15.4531 265.461 15.206 264.638 15.206 263.375H15.153C14.0583 264.93 12.946 265.811 10.4742 265.811C8.10398 265.811 6.16187 264.72 6.16187 262.305C6.16187 258.939 9.69298 258.82 13.0608 258.45C14.3585 258.31 15.078 258.149 15.078 256.804C15.078 254.829 13.5596 254.335 11.719 254.335C9.77244 254.335 8.32909 255.158 8.28053 257.121L6.70919 257.174ZM15.0956 258.939H15.0471C14.8484 259.289 14.1643 259.404 13.7229 259.474C11.0745 259.914 7.74646 259.886 7.74646 262.235C7.74646 263.7 9.14125 264.605 10.6111 264.605C12.999 264.605 15.1177 263.19 15.0912 260.844L15.0956 258.939Z" fill="black" stroke="black" stroke-width="0.86" stroke-miterlimit="10"/>
<path d="M28.761 253.491H30.2044V256.302H30.2529C30.5962 255.376 31.2589 254.582 32.1373 254.045C33.0158 253.507 34.0605 253.256 35.1082 253.331V254.796C32.2657 254.656 30.3235 256.606 30.3235 259.091V265.473H28.7566L28.761 253.491Z" fill="black" stroke="black" stroke-width="0.86" stroke-miterlimit="10"/>
<path d="M56.6348 259.482C56.6348 262.922 54.494 265.823 50.5568 265.823C46.6196 265.823 44.4789 262.943 44.4789 259.482C44.4789 256.022 46.6241 253.146 50.5568 253.146C54.4896 253.146 56.6348 256.047 56.6348 259.482ZM46.0414 259.482C46.0414 262.038 47.5333 264.593 50.548 264.593C53.5627 264.593 55.059 262.038 55.059 259.482C55.059 256.927 53.5627 254.376 50.548 254.376C47.5333 254.376 46.0502 256.931 46.0502 259.482H46.0414Z" fill="black" stroke="black" stroke-width="0.86" stroke-miterlimit="10"/>
<path d="M67.9476 253.491H69.391V255.528H69.466C69.8459 254.795 70.4463 254.181 71.194 253.761C71.9417 253.341 72.8044 253.133 73.6769 253.162C75.3718 253.162 76.8902 253.928 77.3625 255.508C77.7212 254.786 78.3001 254.178 79.027 253.761C79.754 253.344 80.5966 253.135 81.4498 253.162C84.2614 253.162 85.7092 254.532 85.7092 257.363V265.49H84.1378V257.417C84.1378 255.442 83.3433 254.376 81.1011 254.376C78.3865 254.376 77.6141 256.466 77.6141 258.696V265.473H76.0427V257.347C76.0692 255.722 75.3453 254.376 73.3547 254.376C70.6401 254.376 69.5411 256.281 69.519 258.787V265.473H67.9476V253.491Z" fill="black" stroke="black" stroke-width="0.86" stroke-miterlimit="10"/>
<path d="M97.5207 257.174C97.6708 254.364 99.785 253.158 102.725 253.158C104.993 253.158 107.461 253.808 107.461 257.014V263.346C107.443 263.463 107.455 263.583 107.494 263.696C107.534 263.808 107.6 263.911 107.689 263.996C107.777 264.081 107.886 264.146 108.005 264.186C108.125 264.226 108.253 264.24 108.379 264.227C108.549 264.223 108.718 264.193 108.878 264.136V265.37C108.543 265.439 108.201 265.469 107.858 265.461C106.265 265.461 106.013 264.638 106.013 263.375H105.965C104.87 264.93 103.758 265.811 101.281 265.811C98.9155 265.811 96.9734 264.72 96.9734 262.305C96.9734 258.939 100.482 258.82 103.872 258.45C105.166 258.31 105.889 258.149 105.889 256.804C105.889 254.829 104.371 254.335 102.526 254.335C100.584 254.335 99.1406 255.158 99.0876 257.121L97.5207 257.174ZM105.907 258.939H105.859C105.66 259.289 104.976 259.404 104.534 259.474C101.886 259.914 98.5536 259.886 98.5536 262.235C98.5536 263.7 99.9484 264.605 101.418 264.605C103.811 264.605 105.929 263.19 105.903 260.844L105.907 258.939Z" fill="black" stroke="black" stroke-width="0.86" stroke-miterlimit="10"/>
<path d="M135.313 257.174C135.463 254.364 137.582 253.158 140.521 253.158C142.786 253.158 145.253 253.808 145.253 257.014V263.346C145.235 263.464 145.247 263.584 145.286 263.697C145.326 263.81 145.393 263.912 145.482 263.998C145.571 264.083 145.68 264.147 145.8 264.187C145.92 264.227 146.049 264.24 146.175 264.227C146.346 264.222 146.514 264.192 146.674 264.136V265.37C146.338 265.439 145.994 265.469 145.65 265.461C144.057 265.461 143.81 264.638 143.81 263.375H143.757C142.662 264.93 141.55 265.811 139.073 265.811C136.708 265.811 134.766 264.72 134.766 262.305C134.766 258.939 138.297 258.82 141.664 258.45C142.962 258.31 143.682 258.149 143.682 256.804C143.682 254.829 142.163 254.335 140.323 254.335C138.376 254.335 136.933 255.158 136.884 257.121L135.313 257.174ZM143.699 258.939H143.651C143.452 259.289 142.768 259.404 142.327 259.474C139.678 259.914 136.35 259.886 136.35 262.235C136.35 263.7 137.745 264.605 139.215 264.605C141.603 264.605 143.721 263.19 143.695 260.844L143.699 258.939Z" fill="black" stroke="black" stroke-width="0.86" stroke-miterlimit="10"/>
<path d="M159.854 253.491H162.467V254.726H159.854V262.803C159.854 263.757 160.004 264.313 161.125 264.383C161.568 264.384 162.01 264.36 162.449 264.313V265.547C161.977 265.547 161.531 265.593 161.055 265.593C158.962 265.593 158.243 264.942 158.265 262.902V254.726H156.023V253.491H158.265V249.895H159.836L159.854 253.491Z" fill="black" stroke="black" stroke-width="0.86" stroke-miterlimit="10"/>
<path d="M173.731 248.896H175.298V265.473H173.731V248.896Z" fill="black" stroke="black" stroke-width="0.86" stroke-miterlimit="10"/>
<path d="M187.15 257.174C187.3 254.364 189.419 253.158 192.358 253.158C194.623 253.158 197.09 253.808 197.09 257.014V263.346C197.072 263.464 197.084 263.584 197.123 263.697C197.163 263.81 197.23 263.912 197.319 263.998C197.408 264.083 197.517 264.147 197.637 264.187C197.757 264.227 197.886 264.24 198.012 264.227C198.183 264.223 198.352 264.193 198.511 264.136V265.37C198.176 265.438 197.834 265.469 197.492 265.461C195.894 265.461 195.647 264.638 195.647 263.375H195.598C194.499 264.93 193.391 265.811 190.915 265.811C188.549 265.811 186.603 264.72 186.603 262.305C186.603 258.939 190.134 258.82 193.506 258.45C194.799 258.31 195.523 258.149 195.523 256.804C195.523 254.829 194.005 254.335 192.16 254.335C190.218 254.335 188.77 255.158 188.721 257.121L187.15 257.174ZM195.536 258.939H195.483C195.285 259.289 194.601 259.404 194.159 259.474C191.511 259.914 188.183 259.886 188.183 262.235C188.183 263.7 189.578 264.605 191.047 264.605C193.44 264.605 195.554 263.19 195.532 260.844L195.536 258.939Z" fill="black" stroke="black" stroke-width="0.86" stroke-miterlimit="10"/>
<path d="M209.157 253.492H210.724V255.549H210.777C211.351 254.109 213.068 253.134 214.887 253.134C218.497 253.134 219.596 254.899 219.596 257.754V265.461H218.047V257.997C218.047 255.94 217.323 254.376 214.785 254.376C212.247 254.376 210.813 256.141 210.746 258.491V265.486H209.18L209.157 253.492Z" fill="black" stroke="black" stroke-width="0.86" stroke-miterlimit="10"/>
<path d="M234.021 253.491H236.638V254.726H234.021V262.803C234.021 263.757 234.171 264.313 235.292 264.383C235.734 264.383 236.177 264.36 236.616 264.313V265.547C236.139 265.547 235.694 265.593 235.217 265.593C233.125 265.593 232.405 264.942 232.427 262.902V254.726H230.189V253.491H232.427V249.895H233.999L234.021 253.491Z" fill="black" stroke="black" stroke-width="0.86" stroke-miterlimit="10"/>
<path d="M247.898 248.896H249.465V251.241H247.898V248.896ZM247.898 253.492H249.465V265.473H247.898V253.492Z" fill="black" stroke="black" stroke-width="0.86" stroke-miterlimit="10"/>
<path d="M270.515 257.256C270.074 255.467 268.922 254.376 266.882 254.376C263.868 254.376 262.371 256.931 262.371 259.482C262.371 262.034 263.868 264.581 266.882 264.581C268.824 264.581 270.413 263.165 270.616 261.165H272.188C271.746 264.046 269.747 265.811 266.891 265.811C262.954 265.811 260.813 262.931 260.813 259.47C260.813 256.01 262.954 253.134 266.891 253.134C269.628 253.134 271.746 254.504 272.095 257.248L270.515 257.256Z" fill="black" stroke="black" stroke-width="0.86" stroke-miterlimit="10"/>
<path d="M294.849 259.482C294.849 262.935 292.717 265.815 288.78 265.815C284.843 265.815 282.702 262.935 282.702 259.474C282.702 256.014 284.843 253.138 288.78 253.138C292.717 253.138 294.849 256.047 294.849 259.482ZM284.255 259.482C284.255 262.038 285.752 264.593 288.766 264.593C291.781 264.593 293.273 262.038 293.273 259.482C293.273 256.927 291.781 254.376 288.766 254.376C285.752 254.376 284.255 256.931 284.255 259.482Z" fill="black" stroke="black" stroke-width="0.86" stroke-miterlimit="10"/>
<path d="M189.754 250.409V249.064H195.051V250.409H189.754Z" fill="black" stroke="black" stroke-width="0.86" stroke-miterlimit="10"/>
</g>
<defs>
<clipPath id="clip0_2_146">
<rect width="300" height="266" fill="white"/>
</clipPath>
</defs>
</svg>
