<svg width="300" height="266" viewBox="0 0 300 266" fill="none" xmlns="http://www.w3.org/2000/svg">
<path d="M97.5027 70.0988C97.5027 22.3807 83.1576 0 48.0098 0C12.8621 0 0 33.2871 0 66.9032C0 87.3572 3.99456 96.752 8.60266 107.987C14.76 123.018 31.2415 132.972 48.9588 132.972H63.6571C63.9054 132.972 64.144 133.058 64.322 133.212C64.5001 133.365 64.6036 133.574 64.6105 133.795C64.9592 145.183 71.3019 195.615 46.3679 195.615C33.3293 195.615 28.9507 180.307 28.5667 161.329C28.5551 160.663 28.2485 160.028 27.7132 159.561C27.1779 159.094 26.457 158.833 25.7065 158.834L2.08335 158.925C1.83316 158.926 1.58564 158.97 1.35499 159.056C1.12433 159.142 0.915064 159.268 0.739172 159.426C0.563281 159.584 0.424221 159.771 0.32995 159.976C0.23568 160.182 0.18805 160.402 0.189794 160.624C0.551733 201.419 14.0715 225.73 47.5684 225.73C85.8898 225.73 97.5027 187.038 97.5027 143.855V70.0988ZM48.0098 100.719C36.9001 100.719 32.7466 92.1936 32.7466 80.3552V53.5688C32.7466 41.3544 37.3194 33.4869 48.0098 33.4869C58.7003 33.4869 64.4913 42.1611 64.4913 53.5179V80.3552C64.4913 93.0708 59.124 100.719 48.0098 100.719Z" fill="black"/>
<path d="M127.173 70.3807H103.519C103.009 70.3787 102.521 70.1973 102.162 69.8765C101.803 69.5557 101.602 69.1216 101.603 68.6694C101.603 26.1715 113.962 0 149.997 0C176.631 0 190.861 14.8813 195.853 39.0752C197.27 45.9323 197.177 74.4222 195.853 80.0849C195.853 124.811 132.492 148.077 132.492 192.282C146.563 192.282 185.308 192.216 194.666 192.2C194.936 192.199 195.203 192.245 195.453 192.336C195.703 192.427 195.93 192.561 196.121 192.731C196.312 192.9 196.464 193.101 196.567 193.322C196.67 193.544 196.723 193.781 196.723 194.021V222.965C196.723 223.448 196.506 223.911 196.121 224.253C195.736 224.594 195.214 224.786 194.67 224.786H97.7146C97.7146 114.382 166.845 129.044 166.845 62.756C166.845 47.3108 167.004 29.7469 148.563 29.7469C128.038 29.7469 129.141 51.9397 129.089 68.689C129.086 69.1384 128.883 69.5687 128.524 69.8857C128.165 70.2028 127.679 70.3807 127.173 70.3807Z" fill="black"/>
<path d="M285.308 117.755C282.17 114.888 278.819 112.162 275.597 110.161C277.843 108.668 279.914 106.976 281.777 105.113C291.083 95.9702 296.179 84.0593 296.056 71.7401L295.901 47.8282C295.791 30.6873 281.534 0.00439453 248.995 0.00439453C216.456 0.00439453 203.589 29.5125 203.594 47.6011V70.3617C203.581 82.8472 208.899 94.8737 218.477 104.021C220.475 105.955 222.623 107.763 224.904 109.433C221.284 111.634 217.533 114.677 214.063 117.841C204.893 126.253 199.772 137.502 199.784 149.205L199.731 180.436C199.696 201.826 211.556 225.644 250.169 225.644C288.782 225.644 300.2 200.401 299.997 179.825L299.688 148.888C299.584 137.256 294.434 126.106 285.308 117.755ZM249.441 30.0333C258.71 30.0333 261.632 38.1789 261.632 48.49V70.3029C261.632 74.3365 260.568 87.3459 250.045 87.3459C239.523 87.3459 237.585 75.2646 237.585 70.8198V47.9222C237.585 37.8264 240.158 30.049 249.441 30.049V30.0333ZM265.03 178.314C265.03 178.314 266.911 199.246 250.169 199.246C233.427 199.246 234.182 182.344 234.182 177.241V143.378C234.182 140.476 236.896 129.045 249.224 129.045C254.296 129.045 265.03 131.998 265.03 143.652V178.314Z" fill="black"/>
<path d="M35.9253 251.24C35.3647 248.162 32.6324 245.554 27.3798 245.554C21.4607 245.554 17.7133 248.565 17.7133 254.627C17.7133 258.822 20.269 263.141 27.1724 263.141C31.5466 263.141 34.8747 261.277 35.9253 256.958H39.655C39.0592 261.865 34.2965 266 27.1547 266C20.8472 266 14.0188 262.922 14.0188 254.283C14.0188 247.821 18.574 242.695 27.1194 242.695C32.1248 242.695 39.0371 244.59 39.655 251.24H35.9253Z" fill="black"/>
<path d="M79.419 258.973H67.1615L63.9746 265.439H59.98L71.2929 243.266H75.5303L86.8433 265.455H82.6059L79.419 258.973ZM73.2395 246.297L68.5431 256.115H78.0551L73.2395 246.297Z" fill="black"/>
<path d="M108.45 243.266H121.338C126.838 243.266 129.725 245.506 129.725 249.637C129.725 253.769 126.856 256.569 121.603 256.569H112.162V265.455H108.45V243.266ZM121.091 253.706C124.773 253.706 125.995 251.936 125.995 249.7C125.995 247.585 124.596 246.128 121.758 246.128H112.162V253.706H121.091Z" fill="black"/>
<path d="M152.816 243.266H156.529V265.455H152.816V243.266Z" fill="black"/>
<path d="M187.961 246.113H178.489V243.266H201.114V246.128H191.655V265.455H187.961V246.113Z" fill="black"/>
<path d="M238.059 258.973H225.802L222.615 265.439H218.642L229.933 243.266H234.171L245.483 265.455H241.246L238.059 258.973ZM231.88 246.297L227.201 256.115H236.695L231.88 246.297Z" fill="black"/>
<path d="M267.089 243.266H270.801V262.596H286.002V265.455H267.089V243.266Z" fill="black"/>
</svg>
